<svg width="22" height="22" viewBox="0 0 22 22" fill="none" xmlns="http://www.w3.org/2000/svg">
<path d="M10.8125 13.5156C12.3054 13.5156 13.5156 12.3054 13.5156 10.8125C13.5156 9.31962 12.3054 8.10939 10.8125 8.10939C9.31962 8.10939 8.10939 9.31962 8.10939 10.8125C8.10939 12.3054 9.31962 13.5156 10.8125 13.5156Z" stroke="black" stroke-width="2" stroke-linecap="round" stroke-linejoin="round"/>
<path d="M16.8741 13.2699C16.765 13.517 16.7325 13.791 16.7807 14.0567C16.8289 14.3225 16.9555 14.5677 17.1444 14.7607L17.1935 14.8099C17.3458 14.962 17.4667 15.1427 17.5491 15.3416C17.6316 15.5405 17.674 15.7536 17.674 15.9689C17.674 16.1842 17.6316 16.3974 17.5491 16.5963C17.4667 16.7952 17.3458 16.9758 17.1935 17.128C17.0414 17.2803 16.8607 17.4011 16.6618 17.4836C16.4629 17.566 16.2497 17.6085 16.0345 17.6085C15.8192 17.6085 15.606 17.566 15.4071 17.4836C15.2082 17.4011 15.0275 17.2803 14.8754 17.128L14.8262 17.0788C14.6332 16.89 14.388 16.7633 14.1223 16.7151C13.8566 16.667 13.5825 16.6995 13.3354 16.8085C13.0932 16.9124 12.8865 17.0848 12.741 17.3045C12.5955 17.5243 12.5173 17.7818 12.5163 18.0454V18.1847C12.5163 18.6192 12.3437 19.0359 12.0365 19.3431C11.7292 19.6503 11.3125 19.8229 10.878 19.8229C10.4435 19.8229 10.0269 19.6503 9.71962 19.3431C9.41238 19.0359 9.23978 18.6192 9.23978 18.1847V18.1109C9.23344 17.8398 9.14568 17.5769 8.98791 17.3563C8.83014 17.1357 8.60966 16.9677 8.35512 16.8741C8.10806 16.765 7.834 16.7325 7.56828 16.7807C7.30256 16.8289 7.05736 16.9555 6.86431 17.1444L6.81516 17.1935C6.66301 17.3458 6.48233 17.4667 6.28345 17.5491C6.08457 17.6316 5.87139 17.674 5.65609 17.674C5.4408 17.674 5.22762 17.6316 5.02874 17.5491C4.82986 17.4667 4.64918 17.3458 4.49703 17.1935C4.34471 17.0414 4.22387 16.8607 4.14143 16.6618C4.05898 16.4629 4.01655 16.2497 4.01655 16.0345C4.01655 15.8192 4.05898 15.606 4.14143 15.4071C4.22387 15.2082 4.34471 15.0275 4.49703 14.8754L4.54617 14.8262C4.73501 14.6332 4.86169 14.388 4.90987 14.1223C4.95805 13.8566 4.92553 13.5825 4.81649 13.3354C4.71265 13.0932 4.54024 12.8865 4.32048 12.741C4.10071 12.5955 3.84319 12.5173 3.5796 12.5163H3.44035C3.00586 12.5163 2.58916 12.3437 2.28193 12.0365C1.9747 11.7292 1.80209 11.3125 1.80209 10.878C1.80209 10.4435 1.9747 10.0269 2.28193 9.71962C2.58916 9.41238 3.00586 9.23978 3.44035 9.23978H3.51407C3.7852 9.23344 4.04815 9.14568 4.26874 8.98791C4.48932 8.83014 4.65734 8.60966 4.75096 8.35512C4.86 8.10806 4.89252 7.834 4.84434 7.56828C4.79616 7.30256 4.66948 7.05736 4.48064 6.86431L4.4315 6.81516C4.27918 6.66301 4.15834 6.48233 4.0759 6.28345C3.99345 6.08457 3.95102 5.87139 3.95102 5.65609C3.95102 5.4408 3.99345 5.22762 4.0759 5.02874C4.15834 4.82986 4.27918 4.64918 4.4315 4.49703C4.58365 4.34471 4.76433 4.22387 4.96321 4.14143C5.16209 4.05898 5.37527 4.01655 5.59056 4.01655C5.80586 4.01655 6.01904 4.05898 6.21792 4.14143C6.4168 4.22387 6.59748 4.34471 6.74963 4.49703L6.79878 4.54617C6.99183 4.73501 7.23703 4.86169 7.50275 4.90987C7.76847 4.95805 8.04253 4.92553 8.28959 4.81649H8.35512C8.5974 4.71265 8.80402 4.54024 8.94956 4.32048C9.0951 4.10071 9.1732 3.84319 9.17425 3.5796V3.44035C9.17425 3.00586 9.34685 2.58916 9.65409 2.28193C9.96132 1.9747 10.378 1.80209 10.8125 1.80209C11.247 1.80209 11.6637 1.9747 11.9709 2.28193C12.2782 2.58916 12.4508 3.00586 12.4508 3.44035V3.51407C12.4518 3.77766 12.5299 4.03518 12.6755 4.25495C12.821 4.47471 13.0276 4.64712 13.2699 4.75096C13.517 4.86 13.791 4.89252 14.0567 4.84434C14.3225 4.79616 14.5677 4.66948 14.7607 4.48064L14.8099 4.4315C14.962 4.27918 15.1427 4.15834 15.3416 4.0759C15.5405 3.99345 15.7536 3.95102 15.9689 3.95102C16.1842 3.95102 16.3974 3.99345 16.5963 4.0759C16.7952 4.15834 16.9758 4.27918 17.128 4.4315C17.2803 4.58365 17.4011 4.76433 17.4836 4.96321C17.566 5.16209 17.6085 5.37527 17.6085 5.59056C17.6085 5.80586 17.566 6.01904 17.4836 6.21792C17.4011 6.4168 17.2803 6.59748 17.128 6.74963L17.0788 6.79878C16.89 6.99183 16.7633 7.23703 16.7151 7.50275C16.667 7.76847 16.6995 8.04253 16.8085 8.28959V8.35512C16.9124 8.5974 17.0848 8.80402 17.3045 8.94956C17.5243 9.0951 17.7818 9.1732 18.0454 9.17425H18.1847C18.6192 9.17425 19.0359 9.34685 19.3431 9.65409C19.6503 9.96132 19.8229 10.378 19.8229 10.8125C19.8229 11.247 19.6503 11.6637 19.3431 11.9709C19.0359 12.2782 18.6192 12.4508 18.1847 12.4508H18.1109C17.8474 12.4518 17.5898 12.5299 17.3701 12.6755C17.1503 12.821 16.9779 13.0276 16.8741 13.2699Z" stroke="black" stroke-width="2" stroke-linecap="round" stroke-linejoin="round"/>
</svg>
