<svg width="22" height="22" viewBox="0 0 22 22" fill="none" xmlns="http://www.w3.org/2000/svg">
<path d="M19.8229 18.9219V17.1198C19.8229 15.4404 18.6743 14.0293 17.1198 13.6292M13.9662 2.96511C15.287 3.49978 16.2188 4.79472 16.2188 6.30729C16.2188 7.81986 15.287 9.11481 13.9662 9.64947M15.3177 18.9219C15.3177 17.2425 15.3177 16.4029 15.0434 15.7405C14.6776 14.8574 13.9759 14.1558 13.0928 13.79C12.4305 13.5156 11.5908 13.5156 9.91147 13.5156H7.20834C5.52901 13.5156 4.68935 13.5156 4.02701 13.79C3.14388 14.1558 2.44225 14.8574 2.07644 15.7405C1.80209 16.4029 1.80209 17.2425 1.80209 18.9219M12.1641 6.30729C12.1641 8.29782 10.5504 9.91146 8.55991 9.91146C6.56938 9.91146 4.95574 8.29782 4.95574 6.30729C4.95574 4.31677 6.56938 2.70312 8.55991 2.70312C10.5504 2.70312 12.1641 4.31677 12.1641 6.30729Z" stroke="black" stroke-width="2" stroke-linecap="round" stroke-linejoin="round"/>
</svg>
